<svg xmlns="http://www.w3.org/2000/svg" width="1600" height="1000" viewBox="0 0 1600 1000">
  <defs>
    <linearGradient id="g" x1="0" y1="0" x2="1" y2="1">
      <stop offset="0%" stop-color="#ffffff"/>
      <stop offset="45%" stop-color="#eff6ff"/>
      <stop offset="100%" stop-color="#dbeafe"/>
    </linearGradient>
    <radialGradient id="b1" cx="18%" cy="22%" r="45%">
      <stop offset="0%" stop-color="#38bdf8" stop-opacity="0.28"/>
      <stop offset="100%" stop-color="#38bdf8" stop-opacity="0"/>
    </radialGradient>
    <radialGradient id="b2" cx="84%" cy="14%" r="40%">
      <stop offset="0%" stop-color="#2563eb" stop-opacity="0.28"/>
      <stop offset="100%" stop-color="#2563eb" stop-opacity="0"/>
    </radialGradient>
    <radialGradient id="b3" cx="78%" cy="80%" r="44%">
      <stop offset="0%" stop-color="#10b981" stop-opacity="0.18"/>
      <stop offset="100%" stop-color="#10b981" stop-opacity="0"/>
    </radialGradient>
  </defs>
  <rect width="1600" height="1000" fill="url(#g)"/>
  <rect width="1600" height="1000" fill="url(#b1)"/>
  <rect width="1600" height="1000" fill="url(#b2)"/>
  <rect width="1600" height="1000" fill="url(#b3)"/>
  <g opacity="0.16" stroke="#2563eb" stroke-width="2" fill="none">
    <path d="M260 240 h90 a45 45 0 0 1 0 90 h-90 a45 45 0 0 1 0-90z"/>
    <path d="M1120 250 h110 a55 55 0 0 1 0 110 h-110 a55 55 0 0 1 0-110z"/>
    <path d="M710 690 h130 a65 65 0 0 1 0 130 h-130 a65 65 0 0 1 0-130z"/>
  </g>
  <g opacity="0.14" fill="#1d4ed8">
    <rect x="500" y="180" width="24" height="90" rx="12"/>
    <rect x="467" y="213" width="90" height="24" rx="12"/>
    <rect x="1250" y="650" width="22" height="82" rx="11"/>
    <rect x="1220" y="680" width="82" height="22" rx="11"/>
  </g>
</svg>
